<svg xmlns="http://www.w3.org/2000/svg" version="1.1" xmlns:xlink="http://www.w3.org/1999/xlink" xmlns:svgjs="http://svgjs.dev/svgjs" width="1500" height="1500" viewBox="0 0 1500 1500"><rect width="1500" height="1500" fill="#ffffff"></rect><g transform="matrix(0.6666666666666666,0,0,0.6666666666666666,249.73773880792555,415.60431848852903)"><svg viewBox="0 0 369 247" data-background-color="#ffffff" preserveAspectRatio="xMidYMid meet" height="1004" width="1500" xmlns="http://www.w3.org/2000/svg" xmlns:xlink="http://www.w3.org/1999/xlink"><g id="tight-bounds" transform="matrix(1,0,0,1,0.09677437987545545,-0.09999999999999432)"><svg viewBox="0 0 368.8064512402491 247.2" height="247.2" width="368.8064512402491"><g><svg viewBox="0 0 395.52 265.10529756516837" height="247.2" width="368.8064512402491"><g transform="matrix(1,0,0,1,0,128.51616678991388)"><svg viewBox="0 0 395.52 136.5891307752545" height="136.5891307752545" width="395.52"><g id="textblocktransform"><svg viewBox="0 0 395.52 136.5891307752545" height="136.5891307752545" width="395.52" id="textblock"><g><svg viewBox="0 0 395.52 136.5891307752545" height="136.5891307752545" width="395.52"><g transform="matrix(1,0,0,1,0,0)"><svg width="395.52" viewBox="2.6 -43.6 127.69 44.1" height="136.5891307752545" data-palette-color="#006400"><path d="M3 0Q2.75 0 2.75-0.5L2.75-0.5Q2.75-1.05 3-1.5 3.25-1.95 3.85-2.55L3.85-2.55Q5-3.6 5.35-4.08 5.7-4.55 5.88-5.33 6.05-6.1 6.5-8.6L6.5-8.6 9.55-26.4Q9.75-27.65 11.28-28.9 12.8-30.15 14-30.15L14-30.15Q14.55-30.15 14.55-29.9L14.55-29.9Q14.55-29.75 14.08-29.05 13.6-28.35 13.35-26.7L13.35-26.7 11.85-17.15Q12.55-17 14.05-17L14.05-17Q16.45-17 18.32-18.13 20.2-19.25 21.25-21.2 22.3-23.15 22.3-25.55L22.3-25.55Q22.3-28.95 20.2-30.73 18.1-32.5 14.2-32.5L14.2-32.5Q11.2-32.5 8.65-31.4 6.1-30.3 4.15-28.1L4.15-28.1Q3.7-27.5 3.45-27.28 3.2-27.05 2.9-27.05L2.9-27.05Q2.6-27.05 2.6-27.4L2.6-27.4 2.65-27.95Q3.1-29.8 4.9-31.48 6.7-33.15 9.55-34.18 12.4-35.2 15.8-35.2L15.8-35.2Q20.55-35.2 23.4-33.08 26.25-30.95 26.25-27.2L26.25-27.2Q26.25-23.9 24.05-21.03 21.85-18.15 18.38-16.32 14.9-14.5 11.2-14.2L11.2-14.2 9.75-5.5Q9.5-4.2 8.8-3.4L8.8-3.4 8.8-3.35Q9.05-3.25 9.55-3.08 10.05-2.9 10.55-2.9L10.55-2.9Q11.15-2.9 11.78-3.18 12.4-3.45 12.6-3.45L12.6-3.45Q12.9-3.45 12.9-3.1L12.9-3.1Q12.9-2.65 12.3-2.05L12.3-2.05Q10.4 0 9.25 0L9.25 0Q8.8 0 7.6-0.4L7.6-0.4Q6-0.85 5.5-0.85L5.5-0.85Q4.75-0.85 3.95-0.43 3.15 0 3 0L3 0ZM27.65 0.5Q25.1 0.5 25.1-4.35L25.1-4.35Q25.1-9 27.12-13.53 29.15-18.05 32.6-20.93 36.05-23.8 40.05-23.8L40.05-23.8Q42.1-23.8 43.6-23.15L43.6-23.15Q42.95-20.6 42.7-19.4L42.7-19.4 41.65-14Q40.25-7.6 39.95-5.15L39.95-5.15Q39.9-4.8 39.9-4.3L39.9-4.3Q39.9-3.2 40.55-3.2L40.55-3.2Q41.35-3.2 42.05-4.23 42.75-5.25 43.65-7.15L43.65-7.15Q43.7-7.2 43.82-7.45 43.95-7.7 44.15-7.7L44.15-7.7Q44.45-7.7 44.45-7.1L44.45-7.1 44.35-6.3Q44-4.65 42.92-3.05 41.85-1.45 40.52-0.48 39.2 0.5 38.15 0.5L38.15 0.5Q36.4 0.5 36.4-2.35L36.4-2.35Q36.4-3.45 36.65-4.6L36.65-4.6 37.5-8.95 37.45-8.95Q35.05-4.75 32.32-2.13 29.6 0.5 27.65 0.5L27.65 0.5ZM30-3.6Q31.4-3.6 33.22-5.78 35.05-7.95 36.62-11.1 38.2-14.25 38.8-16.75L38.8-16.75 39.6-19.95Q38.1-20.95 36.45-20.95L36.45-20.95Q34.3-20.95 32.52-18.48 30.75-16 29.75-12.48 28.75-8.95 28.75-6.1L28.75-6.1Q28.75-4.85 29.02-4.23 29.3-3.6 30-3.6L30-3.6ZM49.05 0.5Q48.6 0.5 48.6 0.2L48.6 0.2Q48.6 0.05 48.82-0.53 49.05-1.1 49.45-3L49.45-3Q50-5.35 50.47-8.05 50.95-10.75 51.85-16.85L51.85-16.85Q52.15-18.75 52.15-19.5L52.15-19.5Q52.15-20.15 51.85-20.15L51.85-20.15Q51.35-20.15 50.75-19.35 50.15-18.55 49.3-17.15L49.3-17.15Q49.05-16.7 48.85-16.38 48.65-16.05 48.52-15.9 48.4-15.75 48.25-15.75L48.25-15.75Q47.85-15.75 47.85-16.3L47.85-16.3Q47.85-17.3 48.95-19.13 50.05-20.95 51.55-22.38 53.05-23.8 54.25-23.8L54.25-23.8Q55.05-23.8 55.4-23.08 55.75-22.35 55.75-21.25L55.75-21.25Q55.75-20.2 55.25-16.8L55.25-16.8 55-15.05 55.05-15.05Q57.5-19.4 59.82-21.6 62.15-23.8 64.25-23.8L64.25-23.8Q65.25-23.8 65.7-23.18 66.15-22.55 66.15-21.1L66.15-21.1Q66.15-19.7 65.7-17.15L65.7-17.15 65.45-15.75 65.55-15.75Q67.8-19.7 70.07-21.75 72.34-23.8 74.15-23.8L74.15-23.8Q76.25-23.8 76.25-20.8L76.25-20.8Q76.25-19.75 75.8-17.15L75.8-17.15 74.65-11.15Q73.4-4.8 73.4-3.95L73.4-3.95Q73.4-3.05 74.15-3.05L74.15-3.05Q75-3.05 75.7-4.17 76.4-5.3 77.2-7.15L77.2-7.15Q77.4-7.7 77.7-7.7L77.7-7.7Q78-7.7 78-7.1L78-7.1Q78-6.65 77.95-6.3L77.95-6.3Q77.59-4.5 76.52-2.93 75.45-1.35 74.09-0.43 72.75 0.5 71.65 0.5L71.65 0.5Q69.84 0.5 69.84-2.2L69.84-2.2Q69.84-4.25 71.09-10.2L71.09-10.2Q71.25-10.95 71.77-13.7 72.3-16.45 72.4-18.3L72.4-18.3Q72.4-19.15 72.25-19.55 72.09-19.95 71.5-19.95L71.5-19.95Q70.34-19.95 68.92-18.3 67.5-16.65 66.25-14.15 65-11.65 64.34-9.25L64.34-9.25 62.8-1.3Q62.75-0.7 61.67-0.1 60.6 0.5 59.95 0.5L59.95 0.5Q59.25 0.5 59.25-0.1L59.25-0.1Q59.7-2.05 60.9-8.63 62.1-15.2 62.3-18.3L62.3-18.3 62.3-18.8Q62.3-19.35 62.15-19.65 62-19.95 61.5-19.95L61.5-19.95Q60.15-19.95 58.47-17.88 56.8-15.8 55.47-12.83 54.15-9.85 53.75-7.45L53.75-7.45 52.95-3.1Q52.65-1.8 51.35-0.65 50.05 0.5 49.05 0.5L49.05 0.5ZM86.34 0.5Q84.09 0.5 82.77-1.23 81.44-2.95 81.44-6L81.44-6Q81.44-9.7 83.22-13.93 84.99-18.15 87.79-20.98 90.59-23.8 93.44-23.8L93.44-23.8Q96.04-23.8 96.04-20.65L96.04-20.65Q96.04-18.1 94.54-15.65 93.04-13.2 90.52-11.33 87.99-9.45 84.99-8.45L84.99-8.45Q84.99-5.75 85.87-4.55 86.74-3.35 88.44-3.35L88.44-3.35Q90.24-3.35 91.74-4.5 93.24-5.65 94.29-7.65L94.29-7.65Q94.44-7.95 94.59-8.15 94.74-8.35 94.99-8.35L94.99-8.35Q95.39-8.35 95.39-7.75L95.39-7.75Q95.39-6.4 94.04-4.4 92.69-2.4 90.59-0.95 88.49 0.5 86.34 0.5L86.34 0.5ZM86.59-11.1Q87.89-11.1 89.37-12.03 90.84-12.95 91.84-14.55 92.84-16.15 92.84-18.15L92.84-18.15Q92.84-20.5 91.19-20.5L91.19-20.5Q89.84-20.5 88.62-19.05 87.39-17.6 86.57-15.45 85.74-13.3 85.44-11.3L85.44-11.3Q85.74-11.1 86.59-11.1L86.59-11.1ZM101.04 0.5Q100.09 0.5 99.67-0.43 99.24-1.35 99.24-2.75L99.24-2.75Q99.24-3.7 99.44-5L99.44-5 102.39-24.7Q103.44-31.5 104.94-35.2 106.44-38.9 108.54-40.55L108.54-40.55Q109.74-41.5 111.04-41.95 112.34-42.4 115.04-43.05L115.04-43.05Q116.29-43.3 116.64-43.45 116.99-43.6 117.09-43.6L117.09-43.6Q117.44-43.6 117.44-43.2L117.44-43.2Q117.44-43 117.22-42.6 116.99-42.2 116.49-41.75L116.49-41.75Q115.94-41.25 115.44-41.08 114.94-40.9 114.24-40.85L114.24-40.85Q111.34-40.55 110.04-39.05L110.04-39.05Q107.59-36.25 106.44-28.7L106.44-28.7 102.79-5.15Q102.74-4.8 102.74-4.3L102.74-4.3Q102.74-3.2 103.39-3.2L103.39-3.2Q104.89-3.2 106.89-7.65L106.89-7.65Q107.09-8.2 107.44-8.2L107.44-8.2Q107.79-8.2 107.79-7.5L107.79-7.5Q107.79-5.85 106.61-3.95 105.44-2.05 103.84-0.78 102.24 0.5 101.04 0.5L101.04 0.5ZM113.49 0.5Q110.94 0.5 110.94-4.35L110.94-4.35Q110.94-9 112.96-13.53 114.99-18.05 118.44-20.93 121.89-23.8 125.89-23.8L125.89-23.8Q127.94-23.8 129.44-23.15L129.44-23.15Q128.79-20.6 128.54-19.4L128.54-19.4 127.49-14Q126.09-7.6 125.79-5.15L125.79-5.15Q125.74-4.8 125.74-4.3L125.74-4.3Q125.74-3.2 126.39-3.2L126.39-3.2Q127.19-3.2 127.89-4.23 128.59-5.25 129.49-7.15L129.49-7.15Q129.54-7.2 129.66-7.45 129.79-7.7 129.99-7.7L129.99-7.7Q130.29-7.7 130.29-7.1L130.29-7.1 130.19-6.3Q129.84-4.65 128.76-3.05 127.69-1.45 126.36-0.48 125.04 0.5 123.99 0.5L123.99 0.5Q122.24 0.5 122.24-2.35L122.24-2.35Q122.24-3.45 122.49-4.6L122.49-4.6 123.34-8.95 123.29-8.95Q120.89-4.75 118.16-2.13 115.44 0.5 113.49 0.5L113.49 0.5ZM115.84-3.6Q117.24-3.6 119.06-5.78 120.89-7.95 122.46-11.1 124.04-14.25 124.64-16.75L124.64-16.75 125.44-19.95Q123.94-20.95 122.29-20.95L122.29-20.95Q120.14-20.95 118.36-18.48 116.59-16 115.59-12.48 114.59-8.95 114.59-6.1L114.59-6.1Q114.59-4.85 114.86-4.23 115.14-3.6 115.84-3.6L115.84-3.6Z" opacity="1" transform="matrix(1,0,0,1,0,0)" fill="#000000" class="wordmark-text-0" data-fill-palette-color="primary" id="text-0"></path></svg></g></svg></g></svg></g></svg></g><g transform="matrix(1,0,0,1,152.9517777601406,0)"><svg viewBox="0 0 89.61644447971875 96.27075115301488" height="96.27075115301488" width="89.61644447971875"><g><svg xmlns="http://www.w3.org/2000/svg" xmlns:xlink="http://www.w3.org/1999/xlink" version="1.1" x="0" y="0" viewBox="0 0.00015661761030905108 343 368.46884338238965" style="enable-background:new 0 0 343.333 368.473;" xml:space="preserve" width="89.61644447971875" height="96.27075115301488" class="icon-icon-0" data-fill-palette-color="accent" id="icon-0"><g fill="#006400" data-fill-palette-color="accent"><path d="M236.836 19.059c6.123 0 11.725 2.264 16.023 5.99-0.29-1.542-0.683-3.094-1.197-4.643C246.829 5.854 233.727-2.89 222.395 0.874c-11.33 3.762-16.599 18.607-11.767 33.158 0.59 1.777 1.306 3.466 2.124 5.058C214.86 27.708 224.854 19.059 236.836 19.059z" fill="#000000" data-fill-palette-color="accent"></path><circle cx="236.835" cy="43.559" r="23" fill="#000000" data-fill-palette-color="accent"></circle><path d="M205.854 185.033l-4.6 59.724c-0.524 6.809 4.571 12.752 11.378 13.275 6.808 0.525 12.753-4.566 13.277-11.377l4.662-60.537c-3.267 0.705-6.498 0.984-9.536 0.984C214.683 187.098 209.164 185.93 205.854 185.033z" fill="#000000" data-fill-palette-color="accent"></path><circle cx="158.918" cy="50.948" r="7.0" fill="#000000" data-fill-palette-color="accent"></circle><rect x="145.252" y="64.282" width="27.333" height="1.666" fill="#000000" data-fill-palette-color="accent"></rect><rect x="145.252" y="70.616" width="27.333" height="1.666" fill="#000000" data-fill-palette-color="accent"></rect><rect x="150.418" y="76.616" width="17" height="1.666" fill="#000000" data-fill-palette-color="accent"></rect><path d="M267.555 181.985l-3.688-47.875V94.165c1.961 1.622 4.16 3.327 6.605 4.907 4.533 2.901 10.11 5.568 16.827 5.603 0.055 0 0.109 0 0.164 0 5.155 0 10.659-1.89 15.391-5.632 4.822-3.774 9.055-9.216 13.037-16.662 2.078-3.899 0.605-8.746-3.291-10.825-3.899-2.079-8.744-0.606-10.822 3.293-3.262 6.126-6.35 9.714-8.76 11.575-2.451 1.855-4.025 2.209-5.719 2.25-1.64 0.007-3.636-0.541-5.929-1.743-3.439-1.773-7.196-4.929-10.613-7.911-1.733-1.497-3.371-2.938-5.183-4.252-0.919-0.658-1.878-1.291-3.099-1.879-1.219-0.561-2.75-1.173-4.976-1.195-0.361 0-0.714 0.032-1.063 0.079-0.101-0.004-0.198-0.016-0.3-0.016h-37.37c-0.306-0.039-0.639-0.066-1.007-0.066-0.002 0-0.596 0-1.717-0.074-3.937-0.245-13.965-1.5-23.727-6.567-3.338-1.753-6.637-3.894-9.733-6.566V36.616h-14.099c-0.106-0.33-0.224-0.644-0.326-0.979-1.274-4.229-5.74-6.626-9.97-5.348-3.009 0.906-5.079 3.427-5.571 6.327h-17.367v64h47.333V77.964c6.248 3.546 12.476 5.777 17.863 7.196 3.511 0.921 6.679 1.503 9.327 1.875v47.075l-3.688 47.874c0.729 0.206 1.587 0.433 2.581 0.662 3.155 0.73 7.535 1.457 12.366 1.455 3.138 0.002 6.463-0.313 9.777-1.112l2.109-27.383h7.799l2.109 27.384c3.312 0.8 6.637 1.113 9.774 1.111C258.951 184.104 264.514 182.844 267.555 181.985zM179.585 97.616h-41.333v-58h41.333V97.616z" fill="#000000" data-fill-palette-color="accent"></path><path d="M267.789 185.032c-3.311 0.897-8.831 2.066-15.185 2.069-3.039 0-6.27-0.277-9.533-0.981l4.662 60.535c0.524 6.811 6.47 11.902 13.277 11.377 6.807-0.523 11.902-6.467 11.378-13.275L267.789 185.032z" fill="#000000" data-fill-palette-color="accent"></path><path d="M148.382 208.995c-0.154-0.83-0.644-1.518-1.306-1.953h-25.289c-0.664 0.436-1.153 1.123-1.307 1.953l-0.66 3.547c0.104 1.107 0.236 2.18 0.419 3.188 0.526 3.043 1.422 5.418 2.597 6.895 0.155 0.102 0.543 0.313 1.116 0.53l1.974-10.614h6.505v11.66c1.348-0.021 2.344-0.106 2.647-0.135 0.342-0.035 0.707-0.057 1.074-0.057 0.094 0 0.184 0.011 0.277 0.013V212.54h6.51l8.184 44.002H117.74l2.535-13.628c-1.749-0.45-3.719-1.064-5.726-2.037l-2.427 13.048v4.184 28.63l4.625-24.862h35.368l16.334 87.807c0.268 1.441 1.526 2.451 2.944 2.451 0.183 0 0.368-0.016 0.554-0.051 1.629-0.301 2.704-1.869 2.4-3.498L148.382 208.995z" fill="#000000" data-fill-palette-color="accent"></path><path d="M109.933 180.983c1.149 0.454 2.228 1.05 3.15 1.779 1.099 0.848 2.041 1.881 2.852 3.051v-10.771h28v20.668h-24.815c0.078 0.848 0.133 1.68 0.183 2.502l0.015 0.238c0.051 1.194 0.079 2.396 0.103 3.592h34.513c2.762 0 5-2.238 5-5v-26c0-2.76-2.238-5-5-5h-15.5v-4.125c0-1.656-1.342-3-3-3h-14.875c-1.656 0-3 1.344-3 3v4.125h-2.625c-2.762 0-5 2.24-5 5V180.983z" fill="#000000" data-fill-palette-color="accent"></path><path d="M109.078 162.79c0-12.426-10.074-22.5-22.5-22.5-12.425 0-22.5 10.074-22.5 22.5 0 6.9 3.109 13.072 8 17.199h29C105.969 175.862 109.078 169.69 109.078 162.79z" fill="#000000" data-fill-palette-color="accent"></path><path d="M110.123 258.11v-18.94-3.822c3.381 3.371 7.393 4.811 10.932 5.701 4.029 0.963 7.816 1.146 10.73 1.156 2.975-0.002 5.02-0.223 5.23-0.246 4.395-0.482 7.563-4.434 7.08-8.824-0.484-4.393-4.438-7.563-8.83-7.078-0.18 0.018-1.586 0.148-3.48 0.148-2.104 0.006-4.84-0.184-6.98-0.711-2.199-0.486-3.445-1.4-3.449-1.521-1.41-1.719-2.48-4.402-3.084-7.889-0.945-5.225-0.703-11.67-0.951-17.512-0.184-2.973-0.328-5.801-1.654-9.139-0.688-1.645-1.824-3.561-3.822-5.102-1.975-1.563-4.686-2.35-6.953-2.309-0.389 0-0.768 0.037-1.141 0.09-0.439-0.078-0.891-0.125-1.355-0.125H63.761c-0.605 0-1.191 0.076-1.758 0.209-3.078 0.422-5.555 1.594-8.113 3.002-4.551 2.641-9.029 6.504-12.738 11.373-3.641 4.855-6.66 10.83-6.713 17.914-0.004 2.489 0.431 5.091 1.367 7.604 0.038 0.109 0.067 0.22 0.109 0.329v-0.002c2.003 5.193 6.099 9.666 11.687 13.033 1.943 1.177 4.089 2.242 6.431 3.218v-18.187c-1.962-1.517-2.791-2.827-3.205-3.861-0.001-0.002-0.002-0.003-0.002-0.005-0.266-0.693-0.385-1.349-0.389-2.13-0.008-1.383 0.459-3.217 1.525-5.227 0.963-1.859 2.43-3.795 4.07-5.514v12.785 22.639 11.111 7.828 98c0 6.83 5.537 12.363 12.363 12.363 6.828 0 12.364-5.533 12.364-12.363v-90.272h4.635v90.272c0 6.83 5.537 12.363 12.363 12.363 6.828 0 12.365-5.533 12.365-12.363V258.11z" fill="#000000" data-fill-palette-color="accent"></path><rect x="166" y="211.632" width="30.317" height="4.5" fill="#000000" data-fill-palette-color="accent"></rect><rect x="277.334" y="211.632" width="65.999" height="4.5" fill="#000000" data-fill-palette-color="accent"></rect><rect y="211.632" width="22.333" height="4.5" fill="#000000" data-fill-palette-color="accent"></rect></g></svg></g></svg></g><g></g></svg></g><defs></defs></svg><rect width="368.8064512402491" height="247.2" fill="none" stroke="none" visibility="hidden"></rect></g></svg></g></svg>